<svg height="261.247813pt" version="1.1" viewBox="0 0 349.88369 261.247813" width="349.88369pt" xmlns="http://www.w3.org/2000/svg" xmlns:xlink="http://www.w3.org/1999/xlink">

 <defs>

  <style type="text/css">

*{stroke-linecap:butt;stroke-linejoin:round;}

  </style>

 </defs>

 <g id="figure_1">

  <g id="patch_1">

   <path d="M 0 261.247813 

L 349.88369 261.247813 

L 349.88369 0 

L 0 0 

z

" style="fill:#ffffff;"></path>

  </g>

  <g id="axes_1">

   <g id="patch_2">

    <path d="M 7.88369 224.64 

L 342.68369 224.64 

L 342.68369 7.2 

L 7.88369 7.2 

z

" style="fill:#eaeaf2;"></path>

   </g>

   <g id="matplotlib.axis_1">

    <g id="xtick_1">

     <g id="line2d_1">

      <path clip-path="url(#pd8ea1da2aa)" d="M 14.15 224.64 

L 14.15 7.2 

" style="fill:none;stroke:#ffffff;stroke-linecap:round;stroke-width:0.8;"></path>

     </g>

     <g id="text_1">

      <!-- 0.3 -->

      <defs>

       <path d="M 4.15625 35.296875 

Q 4.15625 48 6.765625 55.734375 

Q 9.375 63.484375 14.515625 67.671875 

Q 19.671875 71.875 27.484375 71.875 

Q 33.25 71.875 37.59375 69.546875 

Q 41.9375 67.234375 44.765625 62.859375 

Q 47.609375 58.5 49.21875 52.21875 

Q 50.828125 45.953125 50.828125 35.296875 

Q 50.828125 22.703125 48.234375 14.96875 

Q 45.65625 7.234375 40.5 3 

Q 35.359375 -1.21875 27.484375 -1.21875 

Q 17.140625 -1.21875 11.234375 6.203125 

Q 4.15625 15.140625 4.15625 35.296875 

z

M 13.1875 35.296875 

Q 13.1875 17.671875 17.3125 11.828125 

Q 21.4375 6 27.484375 6 

Q 33.546875 6 37.671875 11.859375 

Q 41.796875 17.71875 41.796875 35.296875 

Q 41.796875 52.984375 37.671875 58.78125 

Q 33.546875 64.59375 27.390625 64.59375 

Q 21.34375 64.59375 17.71875 59.46875 

Q 13.1875 52.9375 13.1875 35.296875 

z

" id="ArialMT-48"></path>

       <path d="M 9.078125 0 

L 9.078125 10.015625 

L 19.09375 10.015625 

L 19.09375 0 

z

" id="ArialMT-46"></path>

       <path d="M 4.203125 18.890625 

L 12.984375 20.0625 

Q 14.5 12.59375 18.140625 9.296875 

Q 21.78125 6 27 6 

Q 33.203125 6 37.46875 10.296875 

Q 41.75 14.59375 41.75 20.953125 

Q 41.75 27 37.796875 30.921875 

Q 33.84375 34.859375 27.734375 34.859375 

Q 25.25 34.859375 21.53125 33.890625 

L 22.515625 41.609375 

Q 23.390625 41.5 23.921875 41.5 

Q 29.546875 41.5 34.03125 44.421875 

Q 38.53125 47.359375 38.53125 53.46875 

Q 38.53125 58.296875 35.25 61.46875 

Q 31.984375 64.65625 26.8125 64.65625 

Q 21.6875 64.65625 18.265625 61.421875 

Q 14.84375 58.203125 13.875 51.765625 

L 5.078125 53.328125 

Q 6.6875 62.15625 12.390625 67.015625 

Q 18.109375 71.875 26.609375 71.875 

Q 32.46875 71.875 37.390625 69.359375 

Q 42.328125 66.84375 44.9375 62.5 

Q 47.5625 58.15625 47.5625 53.265625 

Q 47.5625 48.640625 45.0625 44.828125 

Q 42.578125 41.015625 37.703125 38.765625 

Q 44.046875 37.3125 47.5625 32.6875 

Q 51.078125 28.078125 51.078125 21.140625 

Q 51.078125 11.765625 44.234375 5.25 

Q 37.40625 -1.265625 26.953125 -1.265625 

Q 17.53125 -1.265625 11.296875 4.34375 

Q 5.078125 9.96875 4.203125 18.890625 

z

" id="ArialMT-51"></path>

      </defs>

      <g style="fill:#262626;" transform="translate(7.2 238.797812)scale(0.1 -0.1)">

       <use xlink:href="#ArialMT-48"></use>

       <use x="55.615234" xlink:href="#ArialMT-46"></use>

       <use x="83.398438" xlink:href="#ArialMT-51"></use>

      </g>

     </g>

    </g>

    <g id="xtick_2">

     <g id="line2d_2">

      <path clip-path="url(#pd8ea1da2aa)" d="M 58.909358 224.64 

L 58.909358 7.2 

" style="fill:none;stroke:#ffffff;stroke-linecap:round;stroke-width:0.8;"></path>

     </g>

     <g id="text_2">

      <!-- 0.4 -->

      <defs>

       <path d="M 32.328125 0 

L 32.328125 17.140625 

L 1.265625 17.140625 

L 1.265625 25.203125 

L 33.9375 71.578125 

L 41.109375 71.578125 

L 41.109375 25.203125 

L 50.78125 25.203125 

L 50.78125 17.140625 

L 41.109375 17.140625 

L 41.109375 0 

z

M 32.328125 25.203125 

L 32.328125 57.46875 

L 9.90625 25.203125 

z

" id="ArialMT-52"></path>

      </defs>

      <g style="fill:#262626;" transform="translate(51.959358 238.797812)scale(0.1 -0.1)">

       <use xlink:href="#ArialMT-48"></use>

       <use x="55.615234" xlink:href="#ArialMT-46"></use>

       <use x="83.398438" xlink:href="#ArialMT-52"></use>

      </g>

     </g>

    </g>

    <g id="xtick_3">

     <g id="line2d_3">

      <path clip-path="url(#pd8ea1da2aa)" d="M 103.668717 224.64 

L 103.668717 7.2 

" style="fill:none;stroke:#ffffff;stroke-linecap:round;stroke-width:0.8;"></path>

     </g>

     <g id="text_3">

      <!-- 0.5 -->

      <defs>

       <path d="M 4.15625 18.75 

L 13.375 19.53125 

Q 14.40625 12.796875 18.140625 9.390625 

Q 21.875 6 27.15625 6 

Q 33.5 6 37.890625 10.78125 

Q 42.28125 15.578125 42.28125 23.484375 

Q 42.28125 31 38.0625 35.34375 

Q 33.84375 39.703125 27 39.703125 

Q 22.75 39.703125 19.328125 37.765625 

Q 15.921875 35.84375 13.96875 32.765625 

L 5.71875 33.84375 

L 12.640625 70.609375 

L 48.25 70.609375 

L 48.25 62.203125 

L 19.671875 62.203125 

L 15.828125 42.96875 

Q 22.265625 47.46875 29.34375 47.46875 

Q 38.71875 47.46875 45.15625 40.96875 

Q 51.609375 34.46875 51.609375 24.265625 

Q 51.609375 14.546875 45.953125 7.46875 

Q 39.0625 -1.21875 27.15625 -1.21875 

Q 17.390625 -1.21875 11.203125 4.25 

Q 5.03125 9.71875 4.15625 18.75 

z

" id="ArialMT-53"></path>

      </defs>

      <g style="fill:#262626;" transform="translate(96.718717 238.797812)scale(0.1 -0.1)">

       <use xlink:href="#ArialMT-48"></use>

       <use x="55.615234" xlink:href="#ArialMT-46"></use>

       <use x="83.398438" xlink:href="#ArialMT-53"></use>

      </g>

     </g>

    </g>

    <g id="xtick_4">

     <g id="line2d_4">

      <path clip-path="url(#pd8ea1da2aa)" d="M 148.428075 224.64 

L 148.428075 7.2 

" style="fill:none;stroke:#ffffff;stroke-linecap:round;stroke-width:0.8;"></path>

     </g>

     <g id="text_4">

      <!-- 0.6 -->

      <defs>

       <path d="M 49.75 54.046875 

L 41.015625 53.375 

Q 39.84375 58.546875 37.703125 60.890625 

Q 34.125 64.65625 28.90625 64.65625 

Q 24.703125 64.65625 21.53125 62.3125 

Q 17.390625 59.28125 14.984375 53.46875 

Q 12.59375 47.65625 12.5 36.921875 

Q 15.671875 41.75 20.265625 44.09375 

Q 24.859375 46.4375 29.890625 46.4375 

Q 38.671875 46.4375 44.84375 39.96875 

Q 51.03125 33.5 51.03125 23.25 

Q 51.03125 16.5 48.125 10.71875 

Q 45.21875 4.9375 40.140625 1.859375 

Q 35.0625 -1.21875 28.609375 -1.21875 

Q 17.625 -1.21875 10.6875 6.859375 

Q 3.765625 14.9375 3.765625 33.5 

Q 3.765625 54.25 11.421875 63.671875 

Q 18.109375 71.875 29.4375 71.875 

Q 37.890625 71.875 43.28125 67.140625 

Q 48.6875 62.40625 49.75 54.046875 

z

M 13.875 23.1875 

Q 13.875 18.65625 15.796875 14.5 

Q 17.71875 10.359375 21.1875 8.171875 

Q 24.65625 6 28.46875 6 

Q 34.03125 6 38.03125 10.484375 

Q 42.046875 14.984375 42.046875 22.703125 

Q 42.046875 30.125 38.078125 34.390625 

Q 34.125 38.671875 28.125 38.671875 

Q 22.171875 38.671875 18.015625 34.390625 

Q 13.875 30.125 13.875 23.1875 

z

" id="ArialMT-54"></path>

      </defs>

      <g style="fill:#262626;" transform="translate(141.478075 238.797812)scale(0.1 -0.1)">

       <use xlink:href="#ArialMT-48"></use>

       <use x="55.615234" xlink:href="#ArialMT-46"></use>

       <use x="83.398438" xlink:href="#ArialMT-54"></use>

      </g>

     </g>

    </g>

    <g id="xtick_5">

     <g id="line2d_5">

      <path clip-path="url(#pd8ea1da2aa)" d="M 193.187433 224.64 

L 193.187433 7.2 

" style="fill:none;stroke:#ffffff;stroke-linecap:round;stroke-width:0.8;"></path>

     </g>

     <g id="text_5">

      <!-- 0.7 -->

      <defs>

       <path d="M 4.734375 62.203125 

L 4.734375 70.65625 

L 51.078125 70.65625 

L 51.078125 63.8125 

Q 44.234375 56.546875 37.515625 44.484375 

Q 30.8125 32.421875 27.15625 19.671875 

Q 24.515625 10.6875 23.78125 0 

L 14.75 0 

Q 14.890625 8.453125 18.0625 20.40625 

Q 21.234375 32.375 27.171875 43.484375 

Q 33.109375 54.59375 39.796875 62.203125 

z

" id="ArialMT-55"></path>

      </defs>

      <g style="fill:#262626;" transform="translate(186.237433 238.797812)scale(0.1 -0.1)">

       <use xlink:href="#ArialMT-48"></use>

       <use x="55.615234" xlink:href="#ArialMT-46"></use>

       <use x="83.398438" xlink:href="#ArialMT-55"></use>

      </g>

     </g>

    </g>

    <g id="xtick_6">

     <g id="line2d_6">

      <path clip-path="url(#pd8ea1da2aa)" d="M 237.946791 224.64 

L 237.946791 7.2 

" style="fill:none;stroke:#ffffff;stroke-linecap:round;stroke-width:0.8;"></path>

     </g>

     <g id="text_6">

      <!-- 0.8 -->

      <defs>

       <path d="M 17.671875 38.8125 

Q 12.203125 40.828125 9.5625 44.53125 

Q 6.9375 48.25 6.9375 53.421875 

Q 6.9375 61.234375 12.546875 66.546875 

Q 18.171875 71.875 27.484375 71.875 

Q 36.859375 71.875 42.578125 66.421875 

Q 48.296875 60.984375 48.296875 53.171875 

Q 48.296875 48.1875 45.671875 44.5 

Q 43.0625 40.828125 37.75 38.8125 

Q 44.34375 36.671875 47.78125 31.875 

Q 51.21875 27.09375 51.21875 20.453125 

Q 51.21875 11.28125 44.71875 5.03125 

Q 38.234375 -1.21875 27.640625 -1.21875 

Q 17.046875 -1.21875 10.546875 5.046875 

Q 4.046875 11.328125 4.046875 20.703125 

Q 4.046875 27.6875 7.59375 32.390625 

Q 11.140625 37.109375 17.671875 38.8125 

z

M 15.921875 53.71875 

Q 15.921875 48.640625 19.1875 45.40625 

Q 22.46875 42.1875 27.6875 42.1875 

Q 32.765625 42.1875 36.015625 45.375 

Q 39.265625 48.578125 39.265625 53.21875 

Q 39.265625 58.0625 35.90625 61.359375 

Q 32.5625 64.65625 27.59375 64.65625 

Q 22.5625 64.65625 19.234375 61.421875 

Q 15.921875 58.203125 15.921875 53.71875 

z

M 13.09375 20.65625 

Q 13.09375 16.890625 14.875 13.375 

Q 16.65625 9.859375 20.171875 7.921875 

Q 23.6875 6 27.734375 6 

Q 34.03125 6 38.125 10.046875 

Q 42.234375 14.109375 42.234375 20.359375 

Q 42.234375 26.703125 38.015625 30.859375 

Q 33.796875 35.015625 27.4375 35.015625 

Q 21.234375 35.015625 17.15625 30.90625 

Q 13.09375 26.8125 13.09375 20.65625 

z

" id="ArialMT-56"></path>

      </defs>

      <g style="fill:#262626;" transform="translate(230.996791 238.797812)scale(0.1 -0.1)">

       <use xlink:href="#ArialMT-48"></use>

       <use x="55.615234" xlink:href="#ArialMT-46"></use>

       <use x="83.398438" xlink:href="#ArialMT-56"></use>

      </g>

     </g>

    </g>

    <g id="xtick_7">

     <g id="line2d_7">

      <path clip-path="url(#pd8ea1da2aa)" d="M 282.70615 224.64 

L 282.70615 7.2 

" style="fill:none;stroke:#ffffff;stroke-linecap:round;stroke-width:0.8;"></path>

     </g>

     <g id="text_7">

      <!-- 0.9 -->

      <defs>

       <path d="M 5.46875 16.546875 

L 13.921875 17.328125 

Q 14.984375 11.375 18.015625 8.6875 

Q 21.046875 6 25.78125 6 

Q 29.828125 6 32.875 7.859375 

Q 35.9375 9.71875 37.890625 12.8125 

Q 39.84375 15.921875 41.15625 21.1875 

Q 42.484375 26.46875 42.484375 31.9375 

Q 42.484375 32.515625 42.4375 33.6875 

Q 39.796875 29.5 35.234375 26.875 

Q 30.671875 24.265625 25.34375 24.265625 

Q 16.453125 24.265625 10.296875 30.703125 

Q 4.15625 37.15625 4.15625 47.703125 

Q 4.15625 58.59375 10.578125 65.234375 

Q 17 71.875 26.65625 71.875 

Q 33.640625 71.875 39.421875 68.109375 

Q 45.21875 64.359375 48.21875 57.390625 

Q 51.21875 50.4375 51.21875 37.25 

Q 51.21875 23.53125 48.234375 15.40625 

Q 45.265625 7.28125 39.375 3.03125 

Q 33.5 -1.21875 25.59375 -1.21875 

Q 17.1875 -1.21875 11.859375 3.4375 

Q 6.546875 8.109375 5.46875 16.546875 

z

M 41.453125 48.140625 

Q 41.453125 55.71875 37.421875 60.15625 

Q 33.40625 64.59375 27.734375 64.59375 

Q 21.875 64.59375 17.53125 59.8125 

Q 13.1875 55.03125 13.1875 47.40625 

Q 13.1875 40.578125 17.3125 36.296875 

Q 21.4375 32.03125 27.484375 32.03125 

Q 33.59375 32.03125 37.515625 36.296875 

Q 41.453125 40.578125 41.453125 48.140625 

z

" id="ArialMT-57"></path>

      </defs>

      <g style="fill:#262626;" transform="translate(275.75615 238.797812)scale(0.1 -0.1)">

       <use xlink:href="#ArialMT-48"></use>

       <use x="55.615234" xlink:href="#ArialMT-46"></use>

       <use x="83.398438" xlink:href="#ArialMT-57"></use>

      </g>

     </g>

    </g>

    <g id="xtick_8">

     <g id="line2d_8">

      <path clip-path="url(#pd8ea1da2aa)" d="M 327.465508 224.64 

L 327.465508 7.2 

" style="fill:none;stroke:#ffffff;stroke-linecap:round;stroke-width:0.8;"></path>

     </g>

     <g id="text_8">

      <!-- 1.0 -->

      <defs>

       <path d="M 37.25 0 

L 28.46875 0 

L 28.46875 56 

Q 25.296875 52.984375 20.140625 49.953125 

Q 14.984375 46.921875 10.890625 45.40625 

L 10.890625 53.90625 

Q 18.265625 57.375 23.78125 62.296875 

Q 29.296875 67.234375 31.59375 71.875 

L 37.25 71.875 

z

" id="ArialMT-49"></path>

      </defs>

      <g style="fill:#262626;" transform="translate(320.515508 238.797812)scale(0.1 -0.1)">

       <use xlink:href="#ArialMT-49"></use>

       <use x="55.615234" xlink:href="#ArialMT-46"></use>

       <use x="83.398438" xlink:href="#ArialMT-48"></use>

      </g>

     </g>

    </g>

    <g id="text_9">

     <!-- identity -->

     <defs>

      <path d="M 6.640625 61.46875 

L 6.640625 71.578125 

L 15.4375 71.578125 

L 15.4375 61.46875 

z

M 6.640625 0 

L 6.640625 51.859375 

L 15.4375 51.859375 

L 15.4375 0 

z

" id="ArialMT-105"></path>

      <path d="M 40.234375 0 

L 40.234375 6.546875 

Q 35.296875 -1.171875 25.734375 -1.171875 

Q 19.53125 -1.171875 14.328125 2.25 

Q 9.125 5.671875 6.265625 11.796875 

Q 3.421875 17.921875 3.421875 25.875 

Q 3.421875 33.640625 6 39.96875 

Q 8.59375 46.296875 13.765625 49.65625 

Q 18.953125 53.03125 25.34375 53.03125 

Q 30.03125 53.03125 33.6875 51.046875 

Q 37.359375 49.078125 39.65625 45.90625 

L 39.65625 71.578125 

L 48.390625 71.578125 

L 48.390625 0 

z

M 12.453125 25.875 

Q 12.453125 15.921875 16.640625 10.984375 

Q 20.84375 6.0625 26.5625 6.0625 

Q 32.328125 6.0625 36.34375 10.765625 

Q 40.375 15.484375 40.375 25.140625 

Q 40.375 35.796875 36.265625 40.765625 

Q 32.171875 45.75 26.171875 45.75 

Q 20.3125 45.75 16.375 40.96875 

Q 12.453125 36.1875 12.453125 25.875 

z

" id="ArialMT-100"></path>

      <path d="M 42.09375 16.703125 

L 51.171875 15.578125 

Q 49.03125 7.625 43.21875 3.21875 

Q 37.40625 -1.171875 28.375 -1.171875 

Q 17 -1.171875 10.328125 5.828125 

Q 3.65625 12.84375 3.65625 25.484375 

Q 3.65625 38.578125 10.390625 45.796875 

Q 17.140625 53.03125 27.875 53.03125 

Q 38.28125 53.03125 44.875 45.953125 

Q 51.46875 38.875 51.46875 26.03125 

Q 51.46875 25.25 51.421875 23.6875 

L 12.75 23.6875 

Q 13.234375 15.140625 17.578125 10.59375 

Q 21.921875 6.0625 28.421875 6.0625 

Q 33.25 6.0625 36.671875 8.59375 

Q 40.09375 11.140625 42.09375 16.703125 

z

M 13.234375 30.90625 

L 42.1875 30.90625 

Q 41.609375 37.453125 38.875 40.71875 

Q 34.671875 45.796875 27.984375 45.796875 

Q 21.921875 45.796875 17.796875 41.75 

Q 13.671875 37.703125 13.234375 30.90625 

z

" id="ArialMT-101"></path>

      <path d="M 6.59375 0 

L 6.59375 51.859375 

L 14.5 51.859375 

L 14.5 44.484375 

Q 20.21875 53.03125 31 53.03125 

Q 35.6875 53.03125 39.625 51.34375 

Q 43.5625 49.65625 45.515625 46.921875 

Q 47.46875 44.1875 48.25 40.4375 

Q 48.734375 37.984375 48.734375 31.890625 

L 48.734375 0 

L 39.9375 0 

L 39.9375 31.546875 

Q 39.9375 36.921875 38.90625 39.578125 

Q 37.890625 42.234375 35.28125 43.8125 

Q 32.671875 45.40625 29.15625 45.40625 

Q 23.53125 45.40625 19.453125 41.84375 

Q 15.375 38.28125 15.375 28.328125 

L 15.375 0 

z

" id="ArialMT-110"></path>

      <path d="M 25.78125 7.859375 

L 27.046875 0.09375 

Q 23.34375 -0.6875 20.40625 -0.6875 

Q 15.625 -0.6875 12.984375 0.828125 

Q 10.359375 2.34375 9.28125 4.8125 

Q 8.203125 7.28125 8.203125 15.1875 

L 8.203125 45.015625 

L 1.765625 45.015625 

L 1.765625 51.859375 

L 8.203125 51.859375 

L 8.203125 64.703125 

L 16.9375 69.96875 

L 16.9375 51.859375 

L 25.78125 51.859375 

L 25.78125 45.015625 

L 16.9375 45.015625 

L 16.9375 14.703125 

Q 16.9375 10.9375 17.40625 9.859375 

Q 17.875 8.796875 18.921875 8.15625 

Q 19.96875 7.515625 21.921875 7.515625 

Q 23.390625 7.515625 25.78125 7.859375 

z

" id="ArialMT-116"></path>

      <path d="M 6.203125 -19.96875 

L 5.21875 -11.71875 

Q 8.109375 -12.5 10.25 -12.5 

Q 13.1875 -12.5 14.9375 -11.515625 

Q 16.703125 -10.546875 17.828125 -8.796875 

Q 18.65625 -7.46875 20.515625 -2.25 

Q 20.75 -1.515625 21.296875 -0.09375 

L 1.609375 51.859375 

L 11.078125 51.859375 

L 21.875 21.828125 

Q 23.96875 16.109375 25.640625 9.8125 

Q 27.15625 15.875 29.25 21.625 

L 40.328125 51.859375 

L 49.125 51.859375 

L 29.390625 -0.875 

Q 26.21875 -9.421875 24.46875 -12.640625 

Q 22.125 -17 19.09375 -19.015625 

Q 16.0625 -21.046875 11.859375 -21.046875 

Q 9.328125 -21.046875 6.203125 -19.96875 

z

" id="ArialMT-121"></path>

     </defs>

     <g style="fill:#262626;" transform="translate(159.442284 251.943125)scale(0.1 -0.1)">

      <use xlink:href="#ArialMT-105"></use>

      <use x="22.216797" xlink:href="#ArialMT-100"></use>

      <use x="77.832031" xlink:href="#ArialMT-101"></use>

      <use x="133.447266" xlink:href="#ArialMT-110"></use>

      <use x="189.0625" xlink:href="#ArialMT-116"></use>

      <use x="216.845703" xlink:href="#ArialMT-105"></use>

      <use x="239.0625" xlink:href="#ArialMT-116"></use>

      <use x="266.845703" xlink:href="#ArialMT-121"></use>

     </g>

    </g>

   </g>

   <g id="matplotlib.axis_2">

    <g id="ytick_1"></g>

   </g>

   <g id="patch_3">

    <path clip-path="url(#pd8ea1da2aa)" d="M 318.513636 28.944 

L 318.513636 202.896 

L 322.989572 202.896 

L 322.989572 28.944 

L 318.513636 28.944 

z

" style="fill:#3274a1;stroke:#3f3f3f;stroke-linejoin:miter;stroke-width:1.5;"></path>

   </g>

   <g id="line2d_9">

    <path clip-path="url(#pd8ea1da2aa)" d="M 318.513636 115.92 

L 314.037701 115.92 

" style="fill:none;stroke:#3f3f3f;stroke-linecap:round;stroke-width:1.5;"></path>

   </g>

   <g id="line2d_10">

    <path clip-path="url(#pd8ea1da2aa)" d="M 322.989572 115.92 

L 327.465508 115.92 

" style="fill:none;stroke:#3f3f3f;stroke-linecap:round;stroke-width:1.5;"></path>

   </g>

   <g id="line2d_11">

    <path clip-path="url(#pd8ea1da2aa)" d="M 314.037701 72.432 

L 314.037701 159.408 

" style="fill:none;stroke:#3f3f3f;stroke-linecap:round;stroke-width:1.5;"></path>

   </g>

   <g id="line2d_12">

    <path clip-path="url(#pd8ea1da2aa)" d="M 327.465508 72.432 

L 327.465508 159.408 

" style="fill:none;stroke:#3f3f3f;stroke-linecap:round;stroke-width:1.5;"></path>

   </g>

   <g id="line2d_13">

    <defs>

     <path d="M 0 3.535534 

L 2.12132 0 

L 0 -3.535534 

L -2.12132 0 

z

" id="mc0aa4ae238" style="stroke:#3f3f3f;stroke-linejoin:miter;"></path>

    </defs>

    <g clip-path="url(#pd8ea1da2aa)">

     <use style="fill:#3f3f3f;stroke:#3f3f3f;stroke-linejoin:miter;" x="287.182086" xlink:href="#mc0aa4ae238" y="115.92"></use>

     <use style="fill:#3f3f3f;stroke:#3f3f3f;stroke-linejoin:miter;" x="287.182086" xlink:href="#mc0aa4ae238" y="115.92"></use>

     <use style="fill:#3f3f3f;stroke:#3f3f3f;stroke-linejoin:miter;" x="287.182086" xlink:href="#mc0aa4ae238" y="115.92"></use>

     <use style="fill:#3f3f3f;stroke:#3f3f3f;stroke-linejoin:miter;" x="287.182086" xlink:href="#mc0aa4ae238" y="115.92"></use>

     <use style="fill:#3f3f3f;stroke:#3f3f3f;stroke-linejoin:miter;" x="287.182086" xlink:href="#mc0aa4ae238" y="115.92"></use>

     <use style="fill:#3f3f3f;stroke:#3f3f3f;stroke-linejoin:miter;" x="287.182086" xlink:href="#mc0aa4ae238" y="115.92"></use>

     <use style="fill:#3f3f3f;stroke:#3f3f3f;stroke-linejoin:miter;" x="287.182086" xlink:href="#mc0aa4ae238" y="115.92"></use>

     <use style="fill:#3f3f3f;stroke:#3f3f3f;stroke-linejoin:miter;" x="287.182086" xlink:href="#mc0aa4ae238" y="115.92"></use>

     <use style="fill:#3f3f3f;stroke:#3f3f3f;stroke-linejoin:miter;" x="287.182086" xlink:href="#mc0aa4ae238" y="115.92"></use>

     <use style="fill:#3f3f3f;stroke:#3f3f3f;stroke-linejoin:miter;" x="287.182086" xlink:href="#mc0aa4ae238" y="115.92"></use>

     <use style="fill:#3f3f3f;stroke:#3f3f3f;stroke-linejoin:miter;" x="287.182086" xlink:href="#mc0aa4ae238" y="115.92"></use>

     <use style="fill:#3f3f3f;stroke:#3f3f3f;stroke-linejoin:miter;" x="287.182086" xlink:href="#mc0aa4ae238" y="115.92"></use>

     <use style="fill:#3f3f3f;stroke:#3f3f3f;stroke-linejoin:miter;" x="287.182086" xlink:href="#mc0aa4ae238" y="115.92"></use>

     <use style="fill:#3f3f3f;stroke:#3f3f3f;stroke-linejoin:miter;" x="287.182086" xlink:href="#mc0aa4ae238" y="115.92"></use>

     <use style="fill:#3f3f3f;stroke:#3f3f3f;stroke-linejoin:miter;" x="287.182086" xlink:href="#mc0aa4ae238" y="115.92"></use>

     <use style="fill:#3f3f3f;stroke:#3f3f3f;stroke-linejoin:miter;" x="287.182086" xlink:href="#mc0aa4ae238" y="115.92"></use>

     <use style="fill:#3f3f3f;stroke:#3f3f3f;stroke-linejoin:miter;" x="287.182086" xlink:href="#mc0aa4ae238" y="115.92"></use>

     <use style="fill:#3f3f3f;stroke:#3f3f3f;stroke-linejoin:miter;" x="287.182086" xlink:href="#mc0aa4ae238" y="115.92"></use>

     <use style="fill:#3f3f3f;stroke:#3f3f3f;stroke-linejoin:miter;" x="287.182086" xlink:href="#mc0aa4ae238" y="115.92"></use>

     <use style="fill:#3f3f3f;stroke:#3f3f3f;stroke-linejoin:miter;" x="287.182086" xlink:href="#mc0aa4ae238" y="115.92"></use>

     <use style="fill:#3f3f3f;stroke:#3f3f3f;stroke-linejoin:miter;" x="300.609893" xlink:href="#mc0aa4ae238" y="115.92"></use>

     <use style="fill:#3f3f3f;stroke:#3f3f3f;stroke-linejoin:miter;" x="309.561765" xlink:href="#mc0aa4ae238" y="115.92"></use>

     <use style="fill:#3f3f3f;stroke:#3f3f3f;stroke-linejoin:miter;" x="309.561765" xlink:href="#mc0aa4ae238" y="115.92"></use>

     <use style="fill:#3f3f3f;stroke:#3f3f3f;stroke-linejoin:miter;" x="309.561765" xlink:href="#mc0aa4ae238" y="115.92"></use>

     <use style="fill:#3f3f3f;stroke:#3f3f3f;stroke-linejoin:miter;" x="309.561765" xlink:href="#mc0aa4ae238" y="115.92"></use>

     <use style="fill:#3f3f3f;stroke:#3f3f3f;stroke-linejoin:miter;" x="309.561765" xlink:href="#mc0aa4ae238" y="115.92"></use>

     <use style="fill:#3f3f3f;stroke:#3f3f3f;stroke-linejoin:miter;" x="305.085829" xlink:href="#mc0aa4ae238" y="115.92"></use>

     <use style="fill:#3f3f3f;stroke:#3f3f3f;stroke-linejoin:miter;" x="305.085829" xlink:href="#mc0aa4ae238" y="115.92"></use>

     <use style="fill:#3f3f3f;stroke:#3f3f3f;stroke-linejoin:miter;" x="23.101872" xlink:href="#mc0aa4ae238" y="115.92"></use>

     <use style="fill:#3f3f3f;stroke:#3f3f3f;stroke-linejoin:miter;" x="23.101872" xlink:href="#mc0aa4ae238" y="115.92"></use>

     <use style="fill:#3f3f3f;stroke:#3f3f3f;stroke-linejoin:miter;" x="23.101872" xlink:href="#mc0aa4ae238" y="115.92"></use>

     <use style="fill:#3f3f3f;stroke:#3f3f3f;stroke-linejoin:miter;" x="23.101872" xlink:href="#mc0aa4ae238" y="115.92"></use>

     <use style="fill:#3f3f3f;stroke:#3f3f3f;stroke-linejoin:miter;" x="23.101872" xlink:href="#mc0aa4ae238" y="115.92"></use>

     <use style="fill:#3f3f3f;stroke:#3f3f3f;stroke-linejoin:miter;" x="23.101872" xlink:href="#mc0aa4ae238" y="115.92"></use>

     <use style="fill:#3f3f3f;stroke:#3f3f3f;stroke-linejoin:miter;" x="23.101872" xlink:href="#mc0aa4ae238" y="115.92"></use>

     <use style="fill:#3f3f3f;stroke:#3f3f3f;stroke-linejoin:miter;" x="23.101872" xlink:href="#mc0aa4ae238" y="115.92"></use>

     <use style="fill:#3f3f3f;stroke:#3f3f3f;stroke-linejoin:miter;" x="23.101872" xlink:href="#mc0aa4ae238" y="115.92"></use>

     <use style="fill:#3f3f3f;stroke:#3f3f3f;stroke-linejoin:miter;" x="23.101872" xlink:href="#mc0aa4ae238" y="115.92"></use>

     <use style="fill:#3f3f3f;stroke:#3f3f3f;stroke-linejoin:miter;" x="23.101872" xlink:href="#mc0aa4ae238" y="115.92"></use>

     <use style="fill:#3f3f3f;stroke:#3f3f3f;stroke-linejoin:miter;" x="23.101872" xlink:href="#mc0aa4ae238" y="115.92"></use>

     <use style="fill:#3f3f3f;stroke:#3f3f3f;stroke-linejoin:miter;" x="23.101872" xlink:href="#mc0aa4ae238" y="115.92"></use>

     <use style="fill:#3f3f3f;stroke:#3f3f3f;stroke-linejoin:miter;" x="23.101872" xlink:href="#mc0aa4ae238" y="115.92"></use>

     <use style="fill:#3f3f3f;stroke:#3f3f3f;stroke-linejoin:miter;" x="23.101872" xlink:href="#mc0aa4ae238" y="115.92"></use>

     <use style="fill:#3f3f3f;stroke:#3f3f3f;stroke-linejoin:miter;" x="23.101872" xlink:href="#mc0aa4ae238" y="115.92"></use>

     <use style="fill:#3f3f3f;stroke:#3f3f3f;stroke-linejoin:miter;" x="23.101872" xlink:href="#mc0aa4ae238" y="115.92"></use>

     <use style="fill:#3f3f3f;stroke:#3f3f3f;stroke-linejoin:miter;" x="23.101872" xlink:href="#mc0aa4ae238" y="115.92"></use>

    </g>

   </g>

   <g id="line2d_14">

    <path clip-path="url(#pd8ea1da2aa)" d="M 322.989572 28.944 

L 322.989572 202.896 

" style="fill:none;stroke:#3f3f3f;stroke-linecap:round;stroke-width:1.5;"></path>

   </g>

   <g id="patch_4">

    <path d="M 7.88369 224.64 

L 7.88369 7.2 

" style="fill:none;stroke:#ffffff;stroke-linecap:square;stroke-linejoin:miter;stroke-width:0.8;"></path>

   </g>

   <g id="patch_5">

    <path d="M 342.68369 224.64 

L 342.68369 7.2 

" style="fill:none;stroke:#ffffff;stroke-linecap:square;stroke-linejoin:miter;stroke-width:0.8;"></path>

   </g>

   <g id="patch_6">

    <path d="M 7.88369 224.64 

L 342.68369 224.64 

" style="fill:none;stroke:#ffffff;stroke-linecap:square;stroke-linejoin:miter;stroke-width:0.8;"></path>

   </g>

   <g id="patch_7">

    <path d="M 7.88369 7.2 

L 342.68369 7.2 

" style="fill:none;stroke:#ffffff;stroke-linecap:square;stroke-linejoin:miter;stroke-width:0.8;"></path>

   </g>

  </g>

 </g>

 <defs>

  <clipPath id="pd8ea1da2aa">

   <rect height="217.44" width="334.8" x="7.88369" y="7.2"></rect>

  </clipPath>

 </defs>

</svg>